<svg xmlns="http://www.w3.org/2000/svg" xmlns:xlink="http://www.w3.org/1999/xlink" xmlns:lucid="lucid" width="765" height="1243"><g transform="translate(-137 -119)" lucid:page-tab-id="0_0"><path d="M760 180c22.1 0 40 17.9 40 40s-17.9 40-40 40H600c-22.1 0-40-17.9-40-40s17.9-40 40-40z" stroke="#000" stroke-width="3" fill-opacity="0"/><use xlink:href="#a" transform="matrix(1,0,0,1,565,185) translate(69.35763888888889 42.37738715277777)"/><path d="M590.45 305.8A7.8 7.8 0 0 1 598 300h196a4.6 4.6 0 0 1 4.45 5.8l-28.9 108.4A7.8 7.8 0 0 1 762 420H566a4.6 4.6 0 0 1-4.45-5.8z" stroke="#000" stroke-width="3" fill-opacity="0"/><use xlink:href="#b" transform="matrix(1,0,0,1,565,305) translate(79.31988715277778 50.18988715277777)"/><use xlink:href="#c" transform="matrix(1,0,0,1,565,305) translate(144.02366319444445 50.18988715277777)"/><use xlink:href="#d" transform="matrix(1,0,0,1,565,305) translate(50.627938368055545 78.64474826388889)"/><path d="M680 262.5v35" stroke="#000" stroke-width="2" fill="none"/><path d="M681 262.53h-2v-1.03h2zM681 298.5h-2v-1.03h2z" stroke="#000" stroke-width=".05"/><path d="M680 422.5v35" stroke="#000" stroke-width="2" fill="none"/><path d="M681 422.53h-2v-1.03h2zM681 458.5h-2v-1.03h2z" stroke="#000" stroke-width=".05"/><path d="M551.47 1065.8a7.8 7.8 0 0 1 7.55-5.8h269.65a4.6 4.6 0 0 1 4.45 5.8l-29.93 112.22a7.8 7.8 0 0 1-7.55 5.8H526a4.6 4.6 0 0 1-4.45-5.8z" stroke="#000" stroke-width="3" fill-opacity="0"/><use xlink:href="#e" transform="matrix(1,0,0,1,525,1065) translate(20.927960069444435 51.18988715277777)"/><use xlink:href="#f" transform="matrix(1,0,0,1,525,1065) translate(105.8270486111111 51.18988715277777)"/><use xlink:href="#g" transform="matrix(1,0,0,1,525,1065) translate(27.171992187500003 79.64474826388889)"/><path d="M677.33 1186.32v31.18" stroke="#000" stroke-width="2" fill="none"/><path d="M678.33 1186.35h-2v-1.03h2zM678.33 1218.5h-2v-1.03h2z" stroke="#000" stroke-width=".05"/><path d="M754.67 1220c22.1 0 40 17.9 40 40s-17.9 40-40 40H600c-22.1 0-40-17.9-40-40s17.9-40 40-40z" stroke="#000" stroke-width="3" fill-opacity="0"/><use xlink:href="#h" transform="matrix(1,0,0,1,565,1225) translate(73.89377170138889 42.37738715277777)"/><path d="M591.52 464a15.73 15.73 0 0 1 10.48-4h156a15.73 15.73 0 0 1 10.48 4l47.04 42a5.36 5.36 0 0 1 0 8l-47.04 42a15.73 15.73 0 0 1-10.48 4H602a15.73 15.73 0 0 1-10.48-4l-47.04-42a5.36 5.36 0 0 1 0-8z" stroke="#000" stroke-width="3" fill-opacity="0"/><use xlink:href="#i" transform="matrix(1,0,0,1,545,465) translate(32.34549479166667 39.56488715277777)"/><use xlink:href="#j" transform="matrix(1,0,0,1,545,465) translate(104.55686631944444 39.56488715277777)"/><use xlink:href="#k" transform="matrix(1,0,0,1,545,465) translate(141.342890625 39.56488715277777)"/><use xlink:href="#l" transform="matrix(1,0,0,1,545,465) translate(155.5106423611111 39.56488715277777)"/><use xlink:href="#m" transform="matrix(1,0,0,1,545,465) translate(189.33659722222222 39.56488715277777)"/><use xlink:href="#n" transform="matrix(1,0,0,1,545,465) translate(209.35287326388888 39.56488715277777)"/><use xlink:href="#o" transform="matrix(1,0,0,1,545,465) translate(65.0852951388889 68.01974826388889)"/><use xlink:href="#p" transform="matrix(1,0,0,1,545,465) translate(85.10157118055555 68.01974826388889)"/><use xlink:href="#q" transform="matrix(1,0,0,1,545,465) translate(103.48264756944444 68.01974826388889)"/><use xlink:href="#r" transform="matrix(1,0,0,1,545,465) translate(191.25825520833334 68.01974826388889)"/><path d="M680 562.5v36.76" stroke="#000" stroke-width="2" fill="none"/><path d="M681 562.53h-2v-1.03h2zM681 600.32l-1-.06-1 .06v-1.1h2z" stroke="#000" stroke-width=".05"/><path d="M674.95 603.25a9.33 9.33 0 0 1 10.1 0l129.9 83.5a3.86 3.86 0 0 1 0 6.5l-129.9 83.5a9.33 9.33 0 0 1-10.1 0l-129.9-83.5a3.86 3.86 0 0 1 0-6.5z" stroke="#000" stroke-width="3" fill-opacity="0"/><use xlink:href="#s" transform="matrix(1,0,0,1,545,605) translate(46.268020833333345 79.06467013888889)"/><use xlink:href="#t" transform="matrix(1,0,0,1,545,605) translate(152.87609375 79.06467013888889)"/><use xlink:href="#u" transform="matrix(1,0,0,1,545,605) translate(198.89388888888888 79.06467013888889)"/><use xlink:href="#v" transform="matrix(1,0,0,1,545,605) translate(75.09289062500002 104.93272569444443)"/><path d="M557.08 826a6 6 0 0 1 6-6h233.84a6 6 0 0 1 6 6v125.82a6 6 0 0 1-6 6H563.08a6 6 0 0 1-6-6z" stroke="#000" stroke-width="3" fill-opacity="0"/><use xlink:href="#w" transform="matrix(1,0,0,1,569.0759172944013,832) translate(6.514322916666686 51.18988715277777)"/><use xlink:href="#x" transform="matrix(1,0,0,1,569.0759172944013,832) translate(126.75520833333333 51.18988715277777)"/><use xlink:href="#y" transform="matrix(1,0,0,1,569.0759172944013,832) translate(177.3747829861111 51.18988715277777)"/><use xlink:href="#z" transform="matrix(1,0,0,1,569.0759172944013,832) translate(1.9608289930555571 79.64474826388889)"/><use xlink:href="#x" transform="matrix(1,0,0,1,569.0759172944013,832) translate(131.30870225694446 79.64474826388889)"/><use xlink:href="#A" transform="matrix(1,0,0,1,569.0759172944013,832) translate(181.92827690972223 79.64474826388889)"/><path d="M680 817.5v-36.76" stroke="#000" stroke-width="2" fill="none"/><path d="M681 818.5h-2v-1.03h2zM680 779.74l1-.06v1.1h-2v-1.1z" stroke="#000" stroke-width=".05"/><path d="M240 627.1a6 6 0 0 1 6-6h233.85a6 6 0 0 1 6 6v125.8a6 6 0 0 1-6 6H246a6 6 0 0 1-6-6z" stroke="#000" stroke-width="3" fill-opacity="0"/><g><use xlink:href="#w" transform="matrix(1,0,0,1,252,633.0902777777778) translate(6.514322916666686 51.18988715277777)"/><use xlink:href="#x" transform="matrix(1,0,0,1,252,633.0902777777778) translate(126.75520833333333 51.18988715277777)"/><use xlink:href="#B" transform="matrix(1,0,0,1,252,633.0902777777778) translate(177.3747829861111 51.18988715277777)"/><use xlink:href="#z" transform="matrix(1,0,0,1,252,633.0902777777778) translate(1.9608289930555571 79.64474826388889)"/><use xlink:href="#x" transform="matrix(1,0,0,1,252,633.0902777777778) translate(131.30870225694446 79.64474826388889)"/><use xlink:href="#C" transform="matrix(1,0,0,1,252,633.0902777777778) translate(181.92827690972223 79.64474826388889)"/></g><path d="M496.34 690h44.43" stroke="#000" stroke-width="2" fill="none"/><path d="M489.3 690l12.92-7.64v15.28z" stroke="#000" stroke-width="2"/><path d="M541.77 690l.1 1h-1.13v-2h1.13z" stroke="#000" stroke-width=".05"/><path d="M680 786a6 6 0 0 1 6-6h33.85a6 6 0 0 1 6 6v28a6 6 0 0 1-6 6H686a6 6 0 0 1-6-6z" stroke="#000" stroke-opacity="0" stroke-width="3" fill="#fff" fill-opacity="0"/><g><use xlink:href="#D" transform="matrix(1,0,0,1,685,785) translate(2.781901041666668 24.564887152777775)"/></g><path d="M500 646a6 6 0 0 1 6-6h33.85a6 6 0 0 1 6 6v28a6 6 0 0 1-6 6H506a6 6 0 0 1-6-6z" stroke="#000" stroke-opacity="0" stroke-width="3" fill="#fff" fill-opacity="0"/><g><use xlink:href="#E" transform="matrix(1,0,0,1,505,645) translate(-4.916666666666664 23.46245659722222)"/></g><path d="M680 960.32v39H200V510h332.2" stroke="#000" stroke-width="2" fill="none"/><path d="M681 960.35h-2v-1.03h2z" stroke="#000" stroke-width=".05"/><path d="M539.22 510l-12.9 7.64v-15.28z" stroke="#000" stroke-width="2"/><path d="M237.5 690H209" stroke="#000" stroke-width="2" fill="none"/><path d="M238.5 691h-1.03v-2h1.03z" stroke="#000" stroke-width=".05"/><path d="M201.96 690l12.92-7.64v15.28z" stroke="#000" stroke-width="2"/><path d="M819.82 510h39v520h-181.5v27.5" stroke="#000" stroke-width="2" fill="none"/><path d="M819.85 511h-1.12l.1-1-.1-1h1.12zM678.33 1058.5h-2v-1.03h2z" stroke="#000" stroke-width=".05"/><defs><path d="M1352-223c-3 116 77 143 194 137V0H950v-86c123 7 195-27 195-147v-480H479v480c-3 120 73 154 195 147V0H78v-86c122 7 194-27 194-147v-1004c3-115-76-146-194-139v-86h596v86c-122-7-195 27-195 147v414h666v-414c3-120-72-154-195-147v-86h596v86c-122-7-194 27-194 147v1006" id="F"/><path d="M467-106c176 0 267-107 272-285v-166c-189 6-378 9-423 154-10 31-15 66-15 106 0 123 47 191 166 191zm272-535c5-199 13-375-190-375-142 0-190 83-187 223-106-2-174-27-174-129 0-169 191-191 369-196 250-7 375 104 375 354v531c-3 100 32 153 133 147V0H788l-32-176h-17C664-76 596 23 420 20 213 16 102-97 102-307c0-109 41-186 116-242 100-75 325-89 521-92" id="G"/><path d="M1069-223c-3 116 77 143 195 137V0H682v-86c118 6 195-21 195-137v-291c-111 68-213 137-388 137-177 0-284-88-284-262v-233c2-108-66-143-174-140v-86h540v86c-108-4-174 30-174 138v215c0 99 61 148 164 147 135-1 220-45 316-90v-270c2-109-67-143-175-140v-86h562v86c-118-6-195 22-195 138v651" id="H"/><path d="M90-254c-4 103 152 127 205 49 94-137 136-375 169-583 6-38 7-71 7-97 2-110-83-131-195-127v-86h963v86c-118-6-195 22-195 138v651c-3 116 77 143 195 137V0H678v-86c108 4 174-29 174-137v-781H588c-36 302-75 611-178 844C365-58 305 13 164 14 62 15 1-33 0-129c-1-63 30-125 90-125" id="I"/><path d="M594-1118c338 0 472 222 475 567 2 360-143 571-481 571S115-205 113-551c-2-359 142-567 481-567zm-4 108c-241 0-279 212-279 459 0 249 39 465 281 465s278-216 278-465c0-248-38-459-280-459" id="J"/><g id="a"><use transform="matrix(0.011935763888888888,0,0,0.011935763888888888,0,0)" xlink:href="#F"/><use transform="matrix(0.011935763888888888,0,0,0.011935763888888888,19.383680555555554,0)" xlink:href="#G"/><use transform="matrix(0.011935763888888888,0,0,0.011935763888888888,32.41753472222222,0)" xlink:href="#H"/><use transform="matrix(0.011935763888888888,0,0,0.011935763888888888,48.06532118055556,0)" xlink:href="#G"/><use transform="matrix(0.011935763888888888,0,0,0.011935763888888888,61.82725694444444,0)" xlink:href="#I"/><use transform="matrix(0.011935763888888888,0,0,0.011935763888888888,77.17664930555556,0)" xlink:href="#J"/></g><path d="M272-1237c3-115-76-146-194-139v-86c450 26 1075-122 1075 366 0 189-111 274-254 322v8c190 36 315 149 315 371 0 294-205 395-526 395H78v-86c122 7 194-27 194-147v-1004zm723 836c0-219-94-319-313-314H479v613h199c216 6 317-83 317-299zm-61-695c0-206-113-269-318-264H479v543h142c209 5 313-71 313-279" id="K"/><path d="M242-872c3-116-77-146-195-140v-86h596c143 0 249 23 315 68s99 111 99 196c-1 162-89 239-232 259v10c155 22 281 79 281 252C1106-84 924 0 682 0H47v-86c118 6 195-21 195-137v-649zm657 553c-2-155-108-197-268-197H434v422h209c166 3 258-59 256-225zm-39-494c0-135-87-190-227-191H434v390h199c143 0 227-59 227-199" id="L"/><path d="M948-223c-1 77 30 114 86 129h115v524h-100C1037 228 1033 0 840 0H336C123-3 145 233 127 430H27V-94h141c99-178 162-442 200-694 5-38 7-71 7-97 2-110-83-131-195-127v-86h963v86c-118-6-195 22-195 138v651zm-456-781c-32 295-81 589-165 828-12 36-25 63-38 82h467v-910H492" id="M"/><g id="b"><use transform="matrix(0.011935763888888888,0,0,0.011935763888888888,0,0)" xlink:href="#K"/><use transform="matrix(0.011935763888888888,0,0,0.011935763888888888,15.981987847222221,0)" xlink:href="#L"/><use transform="matrix(0.011935763888888888,0,0,0.011935763888888888,30.531684027777782,0)" xlink:href="#J"/><use transform="matrix(0.011935763888888888,0,0,0.011935763888888888,44.150390625,0)" xlink:href="#M"/></g><path d="M1051-391c0 285-201 411-492 411-220 0-368-84-435-236-20-47-30-97-30-151 0-223 160-295 312-374-133-80-265-171-265-375 0-251 178-367 443-367 242 0 403 117 403 353 0 204-138 274-276 346 133 65 255 138 315 270 16 37 25 78 25 123zm-758 33c0 180 95 284 276 284 178 0 295-96 295-272 0-145-92-203-192-264-45-27-102-53-168-82-116 64-211 164-211 334zm317-473c117-57 199-132 195-304-4-153-76-251-234-251-153 0-237 92-237 245 0 189 144 241 276 310" id="N"/><use transform="matrix(0.011935763888888888,0,0,0.011935763888888888,0,0)" xlink:href="#N" id="c"/><path d="M893-256c39 28 47 103 13 150C845-22 730 20 580 20c-332 0-467-220-467-563 0-349 119-575 456-575 140 0 259 39 325 116 44 51 42 161-14 193-31 18-76 29-137 29-1-134-38-239-174-236-232 6-258 224-258 471 0 264 65 427 310 432 127 2 227-62 272-143" id="O"/><path d="M975-866c4-113-64-149-174-146v-86h561v86c-118-6-195 22-195 138v651c-3 116 77 143 195 137V0H780v-86c118 6 195-21 195-137v-510L434-233c-7 124 73 154 195 147V0H47v-86c118 6 195-21 195-137v-649c3-116-77-146-195-140v-86h582v86c-118-6-195 22-195 138v512" id="P"/><path d="M1370-223c-3 116 77 143 195 137V0h-561v-86c108 4 174-29 174-137v-656h-15L807 0h-94L367-879h-15v656c-3 108 66 141 174 137V0H47v-86c118 6 195-21 195-137v-649c3-116-77-146-195-140v-86h438l324 828 338-828h418v86c-118-6-195 22-195 138v651" id="Q"/><g id="d"><use transform="matrix(0.011935763888888888,0,0,0.011935763888888888,0,0)" xlink:href="#O"/><use transform="matrix(0.011935763888888888,0,0,0.011935763888888888,12.03125,0)" xlink:href="#P"/><use transform="matrix(0.011935763888888888,0,0,0.011935763888888888,28.848741319444443,0)" xlink:href="#Q"/><use transform="matrix(0.011935763888888888,0,0,0.011935763888888888,48.08919270833333,0)" xlink:href="#L"/><use transform="matrix(0.011935763888888888,0,0,0.011935763888888888,62.638888888888886,0)" xlink:href="#J"/><use transform="matrix(0.011935763888888888,0,0,0.011935763888888888,76.74696180555556,0)" xlink:href="#I"/><use transform="matrix(0.011935763888888888,0,0,0.011935763888888888,92.09635416666667,0)" xlink:href="#J"/><use transform="matrix(0.011935763888888888,0,0,0.011935763888888888,106.20442708333334,0)" xlink:href="#L"/></g><path d="M242-872c3-116-77-146-195-140v-86h582v86c-118-6-195 24-195 140v262c306-4 610-3 610 297C1044-84 862 0 621 0H47v-86c118 6 195-21 195-137v-649zm596 548c0-198-200-197-404-192v422h148c169 3 256-62 256-230zm419-548c2-108-66-143-174-140v-86h541v86c-108-4-174 30-174 138v651c-3 108 66 141 174 137V0h-541v-86c108 4 174-29 174-137v-649" id="R"/><g id="e"><use transform="matrix(0.011935763888888888,0,0,0.011935763888888888,0,0)" xlink:href="#K"/><use transform="matrix(0.011935763888888888,0,0,0.011935763888888888,15.981987847222221,0)" xlink:href="#R"/><use transform="matrix(0.011935763888888888,0,0,0.011935763888888888,36.17730034722222,0)" xlink:href="#L"/><use transform="matrix(0.011935763888888888,0,0,0.011935763888888888,50.72699652777777,0)" xlink:href="#J"/><use transform="matrix(0.011935763888888888,0,0,0.011935763888888888,64.345703125,0)" xlink:href="#M"/></g><path d="M242-872c3-116-77-146-195-140v-86h1274v86c-118-6-195 22-195 138v651c-3 116 77 143 195 137V0H760v-86c108 4 174-29 174-137v-781H434v781c-3 108 66 141 174 137V0H47v-86c118 6 195-21 195-137v-649" id="S"/><path d="M868-871c27-98-34-147-137-141v-86h426v86c-114-4-130 76-162 160C865-510 751-153 616 182c-65 163-156 280-360 302-50 6-113 8-178 8v-97c285-2 394-182 461-403L160-903c-28-65-56-114-152-109v-86h492v86c-114-14-152 77-113 174 88 217 187 419 248 662h6c62-238 163-461 227-695" id="T"/><path d="M1696-225c-3 115 76 146 194 139V0H47v-86c119 7 195-23 195-139v-649c3-116-77-144-195-138v-86h549v86c-108-4-174 30-174 138v780h457v-780c2-108-66-142-174-138v-86h528v86c-108-4-174 30-174 138v780h457v-780c2-108-66-142-175-138v-86h549v86c-118-6-194 22-194 138v649" id="U"/><path d="M786-645c-4-191-36-363-223-363-76 0-134 30-175 92s-66 152-73 271h471zm123 393c43 21 51 90 17 136C862-29 744 20 588 20c-331 0-471-225-475-561-4-348 134-577 454-577 327 0 443 231 426 583H311c7 242 67 426 305 426 140 0 234-60 293-143" id="V"/><path d="M713-1331c134 0 199-64 211-187h174c-22 199-164 276-389 277s-364-70-377-277h170c5 133 67 187 211 187zm262 465c4-113-64-149-174-146v-86h561v86c-118-6-195 22-195 138v651c-3 116 77 143 195 137V0H780v-86c118 6 195-21 195-137v-510L434-233c-7 124 73 154 195 147V0H47v-86c118 6 195-21 195-137v-649c3-116-77-146-195-140v-86h582v86c-118-6-195 22-195 138v512" id="W"/><path d="M301-799c0 142 79 217 225 217h199v-422H526c-142 1-225 68-225 205zM530-86c118 6 195-21 195-137v-260H555L385-166C330-38 208 4 16 0v-86c99 1 136-58 174-123l181-311c-146-34-269-113-269-287 0-226 179-291 414-291h576v86c-108-3-174 32-174 140v649c-3 116 76 143 194 137V0H530v-86" id="X"/><g id="f"><use transform="matrix(0.011935763888888888,0,0,0.011935763888888888,0,0)" xlink:href="#S"/><use transform="matrix(0.011935763888888888,0,0,0.011935763888888888,16.328125,0)" xlink:href="#J"/><use transform="matrix(0.011935763888888888,0,0,0.011935763888888888,30.436197916666664,0)" xlink:href="#I"/><use transform="matrix(0.011935763888888888,0,0,0.011935763888888888,45.78559027777777,0)" xlink:href="#T"/><use transform="matrix(0.011935763888888888,0,0,0.011935763888888888,59.59526909722222,0)" xlink:href="#H"/><use transform="matrix(0.011935763888888888,0,0,0.011935763888888888,75.24305555555554,0)" xlink:href="#P"/><use transform="matrix(0.011935763888888888,0,0,0.011935763888888888,92.06054687499999,0)" xlink:href="#L"/><use transform="matrix(0.011935763888888888,0,0,0.011935763888888888,106.61024305555554,0)" xlink:href="#U"/><use transform="matrix(0.011935763888888888,0,0,0.011935763888888888,129.72981770833331,0)" xlink:href="#V"/><use transform="matrix(0.011935763888888888,0,0,0.011935763888888888,142.81141493055554,0)" xlink:href="#W"/><use transform="matrix(0.011935763888888888,0,0,0.011935763888888888,159.62890625,0)" xlink:href="#O"/><use transform="matrix(0.011935763888888888,0,0,0.011935763888888888,171.66015625,0)" xlink:href="#X"/></g><path d="M270-86c118 6 195-21 195-137v-781c-94 7-221-23-269 35-36 43-42 127-55 199H41l12-328h1014l12 328H979c-20-114-16-234-154-234H657v781C652-99 746-79 872-86V0H270v-86" id="Y"/><path d="M242-872c3-116-77-146-195-140v-86h582v86c-118-6-195 24-195 140v262c324-1 672-25 672 297C1106-84 924 0 682 0H47v-86c118 6 195-21 195-137v-649zm657 548c-3-151-110-192-268-192H434v422h209c169 3 259-62 256-230" id="Z"/><path d="M975-872c2-108-66-143-174-140v-86h561v86c-118-6-195 22-195 138v651c-3 116 77 143 195 137V0H801v-86c108 4 174-29 174-137v-293H434v293c-3 108 66 141 174 137V0H47v-86c118 6 195-21 195-137v-649c3-116-77-146-195-140v-86h561v86c-108-4-174 30-174 138v264h541v-262" id="aa"/><g id="g"><use transform="matrix(0.011935763888888888,0,0,0.011935763888888888,0,0)" xlink:href="#S"/><use transform="matrix(0.011935763888888888,0,0,0.011935763888888888,16.328125,0)" xlink:href="#J"/><use transform="matrix(0.011935763888888888,0,0,0.011935763888888888,30.436197916666664,0)" xlink:href="#O"/><use transform="matrix(0.011935763888888888,0,0,0.011935763888888888,42.467447916666664,0)" xlink:href="#I"/><use transform="matrix(0.011935763888888888,0,0,0.011935763888888888,57.81684027777777,0)" xlink:href="#V"/><use transform="matrix(0.011935763888888888,0,0,0.011935763888888888,70.65972222222221,0)" xlink:href="#M"/><use transform="matrix(0.011935763888888888,0,0,0.011935763888888888,84.86328124999999,0)" xlink:href="#J"/><use transform="matrix(0.011935763888888888,0,0,0.011935763888888888,98.97135416666666,0)" xlink:href="#L"/><use transform="matrix(0.011935763888888888,0,0,0.011935763888888888,113.52105034722221,0)" xlink:href="#G"/><use transform="matrix(0.011935763888888888,0,0,0.011935763888888888,127.2829861111111,0)" xlink:href="#Y"/><use transform="matrix(0.011935763888888888,0,0,0.011935763888888888,140.65104166666666,0)" xlink:href="#V"/><use transform="matrix(0.011935763888888888,0,0,0.011935763888888888,153.73263888888889,0)" xlink:href="#I"/><use transform="matrix(0.011935763888888888,0,0,0.011935763888888888,169.08203125,0)" xlink:href="#Z"/><use transform="matrix(0.011935763888888888,0,0,0.011935763888888888,183.63172743055554,0)" xlink:href="#aa"/><use transform="matrix(0.011935763888888888,0,0,0.011935763888888888,200.44921875,0)" xlink:href="#O"/><use transform="matrix(0.011935763888888888,0,0,0.011935763888888888,212.48046875,0)" xlink:href="#Y"/><use transform="matrix(0.011935763888888888,0,0,0.011935763888888888,225.84852430555554,0)" xlink:href="#P"/></g><path d="M1078-1452c104-50 282-29 276 106-4 76-38 122-99 138-13-64-44-114-120-115-40 0-79 20-115 59-111 116-184 376-303 490 146 2 204 81 258 178l192 346c56 96 109 159 236 164V0c-171 1-304-4-376-96-21-25-41-58-62-97L778-549c-40-76-77-126-180-135-31-3-71-4-119-4v455c-3 120 73 154 195 147V0H78v-86c117 6 194-21 194-137v-1014c3-115-76-146-194-139v-86h596v86c-122-7-195 27-195 147v447c91 1 149-10 185-62 128-183 200-504 414-608" id="ab"/><path d="M1147-229c-4 115 76 142 194 135v524h-100c-11-202-13-430-209-430H68v-86c108 4 174-31 174-139v-649c3-116-77-144-195-138v-86h582v86c-118-6-195 22-195 138v780h520v-780c3-116-76-144-194-138v-86h581v86c-118-6-194 22-194 138v645" id="ac"/><g id="h"><use transform="matrix(0.011935763888888888,0,0,0.011935763888888888,0,0)" xlink:href="#ab"/><use transform="matrix(0.011935763888888888,0,0,0.011935763888888888,16.62651909722222,0)" xlink:href="#J"/><use transform="matrix(0.011935763888888888,0,0,0.011935763888888888,30.734592013888886,0)" xlink:href="#aa"/><use transform="matrix(0.011935763888888888,0,0,0.011935763888888888,47.55208333333333,0)" xlink:href="#V"/><use transform="matrix(0.011935763888888888,0,0,0.011935763888888888,60.63368055555555,0)" xlink:href="#ac"/></g><path d="M1290-233c-4 125 80 155 209 147v516h-94c-2-250-72-430-315-430H78v-86c118 6 194-23 194-139v-1004c4-120-72-154-194-147v-86h596v86c-122-7-195 27-195 147v1127h604v-1127c4-120-72-154-194-147v-86h596v86c-118-6-195 21-195 137v1006" id="ad"/><path d="M1114-856c-13-63-43-115-115-115-33 0-64 13-92 39-87 80-159 247-260 316 139 5 192 88 250 178 88 137 131 347 342 352V0c-167 3-305-4-377-96-80-102-131-261-209-367-43-57-116-68-219-67v307c-3 108 66 141 174 137V0H37v-86c127 8 205-23 205-147v-639c3-120-82-147-205-140v-86h571v86c-103-2-174 25-174 129v258c123 2 152-45 207-120 82-112 155-292 294-349 28-11 62-16 101-16 119 0 203 62 168 176-13 41-46 68-90 78" id="ae"/><g id="i"><use transform="matrix(0.011935763888888888,0,0,0.011935763888888888,0,0)" xlink:href="#ad"/><use transform="matrix(0.011935763888888888,0,0,0.011935763888888888,18.655598958333332,0)" xlink:href="#P"/><use transform="matrix(0.011935763888888888,0,0,0.011935763888888888,35.47309027777777,0)" xlink:href="#ae"/><use transform="matrix(0.011935763888888888,0,0,0.011935763888888888,50.51215277777777,0)" xlink:href="#I"/></g><g id="j"><use transform="matrix(0.011935763888888888,0,0,0.011935763888888888,0,0)" xlink:href="#S"/><use transform="matrix(0.011935763888888888,0,0,0.011935763888888888,16.328125,0)" xlink:href="#J"/></g><path d="M434-233c-3 120 73 154 195 147V0H47v-86c118 6 195-21 195-137v-649c2-108-66-143-174-140v-86h366v865zM330-1303c-79 0-117-45-117-127s37-126 117-126c79 0 116 46 116 126 0 81-37 127-116 127" id="af"/><use transform="matrix(0.011935763888888888,0,0,0.011935763888888888,0,0)" xlink:href="#af" id="k"/><g id="l"><use transform="matrix(0.011935763888888888,0,0,0.011935763888888888,0,0)" xlink:href="#J"/><use transform="matrix(0.011935763888888888,0,0,0.011935763888888888,14.108072916666666,0)" xlink:href="#Y"/></g><path d="M709-233C699-82 828-79 977-86V0H197v-86h137c108 3 168-38 168-147v-1076c-64 75-120 150-204 197-78 44-169-10-163-94 181-48 304-168 443-264h131v1237" id="ag"/><use transform="matrix(0.011935763888888888,0,0,0.011935763888888888,0,0)" xlink:href="#ag" id="m"/><g id="n"><use transform="matrix(0.011935763888888888,0,0,0.011935763888888888,0,0)" xlink:href="#M"/><use transform="matrix(0.011935763888888888,0,0,0.011935763888888888,14.203559027777777,0)" xlink:href="#J"/></g><use transform="matrix(0.011935763888888888,0,0,0.011935763888888888,0,0)" xlink:href="#N" id="o"/><use transform="matrix(0.011935763888888888,0,0,0.011935763888888888,0,0)" xlink:href="#O" id="p"/><path d="M242-872c3-116-77-146-195-140v-86h850v328H797c-21-112-17-234-154-234H434v781C429-99 523-79 649-86V0H47v-86c118 6 195-21 195-137v-649" id="ah"/><g id="q"><use transform="matrix(0.011935763888888888,0,0,0.011935763888888888,0,0)" xlink:href="#U"/><use transform="matrix(0.011935763888888888,0,0,0.011935763888888888,23.119574652777775,0)" xlink:href="#G"/><use transform="matrix(0.011935763888888888,0,0,0.011935763888888888,36.881510416666664,0)" xlink:href="#ah"/><use transform="matrix(0.011935763888888888,0,0,0.011935763888888888,48.07725694444444,0)" xlink:href="#J"/><use transform="matrix(0.011935763888888888,0,0,0.011935763888888888,62.18532986111111,0)" xlink:href="#Q"/></g><use transform="matrix(0.011935763888888888,0,0,0.011935763888888888,0,0)" xlink:href="#ag" id="r"/><path d="M946-553c0-230-32-430-254-434-242-4-278 193-278 436s40 440 280 440c221 0 252-212 252-442zm-219-565c321 0 418 237 418 567 0 331-96 571-418 571-163 0-254-75-313-180h-8c7 140 10 280 8 428-2 108 66 142 174 138v86H37v-86c118 6 184-32 184-148V-872c3-116-76-146-194-140v-86h358l21 185h8c57-116 142-205 313-205" id="ai"/><g id="s"><use transform="matrix(0.010850694444444442,0,0,0.010850694444444442,0,0)" xlink:href="#O"/><use transform="matrix(0.010850694444444442,0,0,0.010850694444444442,10.937499999999998,0)" xlink:href="#Y"/><use transform="matrix(0.010850694444444442,0,0,0.010850694444444442,23.090277777777775,0)" xlink:href="#G"/><use transform="matrix(0.010850694444444442,0,0,0.010850694444444442,35.601128472222214,0)" xlink:href="#ai"/><use transform="matrix(0.010850694444444442,0,0,0.010850694444444442,49.24045138888888,0)" xlink:href="#U"/><use transform="matrix(0.010850694444444442,0,0,0.010850694444444442,70.25824652777777,0)" xlink:href="#P"/><use transform="matrix(0.010850694444444442,0,0,0.010850694444444442,85.54687499999999,0)" xlink:href="#W"/></g><path d="M1067-522c0 341-144 541-483 542-156 0-273-53-352-160S113-412 113-635c0-445 91-782 493-825 115-12 239-20 324-62 22-11 37-26 45-45h65c1 247-220 252-442 279-192 23-310 70-339 248-9 54-16 122-19 204h8c51-137 165-225 350-225 325 0 470 202 469 539zM584-86c241 0 286-193 286-436 0-244-45-433-286-434-240-1-274 192-275 434 0 142 22 250 65 324S487-86 584-86" id="aj"/><g id="t"><use transform="matrix(0.010850694444444442,0,0,0.010850694444444442,0,0)" xlink:href="#aj"/><use transform="matrix(0.010850694444444442,0,0,0.010850694444444442,12.803819444444441,0)" xlink:href="#P"/><use transform="matrix(0.010850694444444442,0,0,0.010850694444444442,28.09244791666666,0)" xlink:href="#Y"/></g><path d="M1012-590v121H133v-121h879zm0-403v121H133v-121h879" id="ak"/><g id="u"><use transform="matrix(0.010850694444444442,0,0,0.010850694444444442,0,0)" xlink:href="#ak"/><use transform="matrix(0.010850694444444442,0,0,0.010850694444444442,12.424045138888886,0)" xlink:href="#ak"/></g><g id="v"><use transform="matrix(0.010850694444444442,0,0,0.010850694444444442,0,0)" xlink:href="#Q"/><use transform="matrix(0.010850694444444442,0,0,0.010850694444444442,17.49131944444444,0)" xlink:href="#I"/><use transform="matrix(0.010850694444444442,0,0,0.010850694444444442,31.445312499999993,0)" xlink:href="#G"/><use transform="matrix(0.010850694444444442,0,0,0.010850694444444442,43.956163194444436,0)" xlink:href="#M"/><use transform="matrix(0.010850694444444442,0,0,0.010850694444444442,56.86848958333332,0)" xlink:href="#U"/><use transform="matrix(0.010850694444444442,0,0,0.010850694444444442,77.8862847222222,0)" xlink:href="#V"/><use transform="matrix(0.010850694444444442,0,0,0.010850694444444442,89.77864583333331,0)" xlink:href="#Q"/><use transform="matrix(0.010850694444444442,0,0,0.010850694444444442,107.26996527777776,0)" xlink:href="#T"/></g><path d="M1141-289c47 27 51 110 13 159C1076-28 927 20 739 20c-439 0-622-310-622-753 0-346 130-585 372-695 199-90 579-71 673 84 39 64 27 161-25 196-32 21-74 38-127 38-5-158-78-264-240-264-349 0-426 285-426 641 0 266 62 478 232 573 54 30 119 45 194 45 183 1 293-72 371-174" id="al"/><g id="w"><use transform="matrix(0.011935763888888888,0,0,0.011935763888888888,0,0)" xlink:href="#al"/><use transform="matrix(0.011935763888888888,0,0,0.011935763888888888,15.003255208333332,0)" xlink:href="#Y"/><use transform="matrix(0.011935763888888888,0,0,0.011935763888888888,28.371310763888886,0)" xlink:href="#G"/><use transform="matrix(0.011935763888888888,0,0,0.011935763888888888,42.13324652777777,0)" xlink:href="#ai"/><use transform="matrix(0.011935763888888888,0,0,0.011935763888888888,57.1365017361111,0)" xlink:href="#U"/><use transform="matrix(0.011935763888888888,0,0,0.011935763888888888,80.25607638888887,0)" xlink:href="#P"/><use transform="matrix(0.011935763888888888,0,0,0.011935763888888888,97.07356770833331,0)" xlink:href="#W"/></g><g id="x"><use transform="matrix(0.011935763888888888,0,0,0.011935763888888888,0,0)" xlink:href="#aj"/><use transform="matrix(0.011935763888888888,0,0,0.011935763888888888,14.084201388888888,0)" xlink:href="#P"/><use transform="matrix(0.011935763888888888,0,0,0.011935763888888888,30.901692708333325,0)" xlink:href="#Y"/></g><path d="M1633-324c-108 57-193 137-273 222h-74c40-74 74-137 119-193H415v-85h990c-46-57-80-125-119-199h74c80 85 159 171 273 222v34" id="am"/><path d="M934-1279c156 241 159 841 0 1092C859-69 752 20 573 20 184 20 92-334 92-735c0-318 66-577 264-695 114-68 314-71 428 0 59 37 108 87 150 151zm-486-51c-167 147-156 561-129 868 13 142 51 258 129 328 64 58 188 58 251 0 125-116 141-350 141-599s-14-481-140-597c-62-58-189-56-252 0" id="an"/><g id="y"><use transform="matrix(0.011935763888888888,0,0,0.011935763888888888,0,0)" xlink:href="#am"/><use transform="matrix(0.011935763888888888,0,0,0.011935763888888888,24.444444444444443,0)" xlink:href="#an"/></g><path d="M1649-233c-4 120 72 154 194 147V0h-545v-86c102 5 154-32 154-129v-1094L983 0H872L397-1305v1072c-4 108 46 153 154 147V0H78v-86c117 6 194-21 194-137v-1014c3-115-76-146-194-139v-86h467L969-291l420-1171h454v86c-122-7-194 27-194 147v996" id="ao"/><g id="z"><use transform="matrix(0.011935763888888888,0,0,0.011935763888888888,0,0)" xlink:href="#ao"/><use transform="matrix(0.011935763888888888,0,0,0.011935763888888888,22.928602430555554,0)" xlink:href="#I"/><use transform="matrix(0.011935763888888888,0,0,0.011935763888888888,38.277994791666664,0)" xlink:href="#G"/><use transform="matrix(0.011935763888888888,0,0,0.011935763888888888,52.03993055555555,0)" xlink:href="#M"/><use transform="matrix(0.011935763888888888,0,0,0.011935763888888888,66.24348958333333,0)" xlink:href="#U"/><use transform="matrix(0.011935763888888888,0,0,0.011935763888888888,89.3630642361111,0)" xlink:href="#P"/><use transform="matrix(0.011935763888888888,0,0,0.011935763888888888,106.18055555555554,0)" xlink:href="#W"/></g><g id="A"><use transform="matrix(0.011935763888888888,0,0,0.011935763888888888,0,0)" xlink:href="#am"/><use transform="matrix(0.011935763888888888,0,0,0.011935763888888888,24.444444444444443,0)" xlink:href="#ag"/></g><g id="B"><use transform="matrix(0.011935763888888888,0,0,0.011935763888888888,0,0)" xlink:href="#am"/><use transform="matrix(0.011935763888888888,0,0,0.011935763888888888,24.444444444444443,0)" xlink:href="#ag"/></g><g id="C"><use transform="matrix(0.011935763888888888,0,0,0.011935763888888888,0,0)" xlink:href="#am"/><use transform="matrix(0.011935763888888888,0,0,0.011935763888888888,24.444444444444443,0)" xlink:href="#an"/></g><path d="M655-1360C640-927 497-598 364-280c-27 65-56 123-83 178h639v-1258H655zM426 0C190 6 126 185 123 430H29v-532h125c135-285 273-594 350-928 22-96 33-183 33-262 0-85-98-82-185-84v-86h942v86c-111-8-170 29-170 137v989c-4 126 79 157 209 148v532h-94c-3-245-67-430-303-430H426" id="ap"/><g id="D"><use transform="matrix(0.011935763888888888,0,0,0.011935763888888888,0,0)" xlink:href="#ap"/><use transform="matrix(0.011935763888888888,0,0,0.011935763888888888,16.674262152777775,0)" xlink:href="#G"/></g><g id="E"><use transform="matrix(0.011935763888888888,0,0,0.011935763888888888,0,0)" xlink:href="#F"/><use transform="matrix(0.011935763888888888,0,0,0.011935763888888888,19.383680555555554,0)" xlink:href="#V"/><use transform="matrix(0.011935763888888888,0,0,0.011935763888888888,32.46527777777777,0)" xlink:href="#Y"/></g></defs></g></svg>